<svg width="600" height="400" viewBox="0 0 600 400" fill="none" xmlns="http://www.w3.org/2000/svg">
  <rect width="600" height="400" rx="40" fill="#fff7ed" />
  <circle cx="150" cy="140" r="100" fill="#ff6600" opacity="0.18" />
  <path d="M155 110C170 100 190 100 205 110L235 160C250 170 250 190 235 200L205 235C190 245 170 245 155 235L125 200C110 190 110 170 125 160L155 110Z" fill="#fb923c" />
  <circle cx="155" cy="140" r="22" fill="#fff" />
  <path d="M155 180V240" stroke="#fff" stroke-width="18" stroke-linecap="round" />
  <rect x="350" y="120" width="180" height="160" rx="24" fill="#007bff" opacity="0.16" />
  <path d="M420 140H470" stroke="#007bff" stroke-width="18" stroke-linecap="round" />
  <path d="M420 180H470" stroke="#007bff" stroke-width="18" stroke-linecap="round" />
  <path d="M435 220C435 235 450 250 470 250" stroke="#007bff" stroke-width="18" stroke-linecap="round" />
  <path d="M470 250C490 250 505 235 505 220" stroke="#007bff" stroke-width="18" stroke-linecap="round" />
</svg>