<svg width="600" height="400" viewBox="0 0 600 400" fill="none" xmlns="http://www.w3.org/2000/svg">
  <rect width="600" height="400" rx="40" fill="#eff6ff" />
  <circle cx="130" cy="120" r="88" fill="#007bff" opacity="0.15" />
  <rect x="320" y="100" width="180" height="180" rx="28" fill="#ff6600" opacity="0.18" />
  <path d="M160 140L220 140M190 110V170" stroke="#007bff" stroke-width="22" stroke-linecap="round" />
  <path d="M375 140L445 140" stroke="#ff6600" stroke-width="20" stroke-linecap="round" />
  <path d="M410 100L410 220" stroke="#ff6600" stroke-width="20" stroke-linecap="round" />
  <path d="M410 160C430 160 440 170 440 190C440 210 430 220 410 220C390 220 380 210 380 190C380 170 390 160 410 160Z" fill="#ff6600" />
  <path d="M260 240C280 260 320 260 340 240" stroke="#0f172a" stroke-width="24" stroke-linecap="round" />
  <path d="M320 240L276 284" stroke="#0f172a" stroke-width="24" stroke-linecap="round" />
  <path d="M320 240L284 196" stroke="#0f172a" stroke-width="24" stroke-linecap="round" />
</svg>